:version 1.10
:name ASF
:units
  mass 1
  length 1
  angle deg
:documentation
  ASF file generated by Kaydara
:root
  axis xyz
  order  tx ty tz rx ry rz
  position 0 0 0
  orientation 0 0 0
:bonedata
  begin
    id 1
    name RightUpLegDummy
    direction -0.718183 -0.695806 0.00816078
    length 4.904
    axis 0 0 0 xyz
  end
  begin
    id 2
    name RightUpLeg
    direction 3.53373e-006 -0.995788 0.0916898
    length 17.4976
    axis -3.49089 -0.000906625 0.000286804 xyz
    dof rx ry rz
  end
  begin
    id 3
    name RightLeg
    direction 0.00371092 -0.995096 -0.0988419
    length 16.5821
    axis 3.68512 0.0193738 -0.131023 xyz
    dof rx ry rz
  end
  begin
    id 4
    name RightFoot
    direction 0.00079151 -0.46099 0.887405
    length 3.77069
    axis 4.81691e-005 -0.120479 -0.188788 xyz
    dof rx ry rz
  end
  begin
    id 5
    name RightToes
    direction 0 0 0
    length 0
    axis 0 0 0 xyz
    dof rx ry rz
  end
  begin
    id 6
    name SpineDummy
    direction 8.3039e-015 1 4.57515e-016
    length 4.6813
    axis 0 0 0 xyz
  end
  begin
    id 7
    name Spine
    direction -3.15643e-008 0.999988 0.00495137
    length 10.1015
    axis -0.001389 0.000121418 2.40972e-006 xyz
    dof rx ry rz
  end
  begin
    id 8
    name Spine1
    direction 0 0 0
    length 0
    axis -0.001389 0.000121451 1.30017e-006 xyz
    dof rx ry rz
  end
  begin
    id 9
    name HEadDummy
    direction -1.99912e-008 0.999999 0.00127422
    length 3.43865
    axis -0.001389 0.000121451 1.30017e-006 xyz
  end
  begin
    id 10
    name HEad
    direction 0 0 0
    length 0
    axis 0 0 0 xyz
    dof rx ry rz
  end
  begin
    id 11
    name LeftShoulder1Dummy
    direction 0.998891 -0.0402509 -0.0244456
    length 3.5433
    axis -0.001389 0.000121451 1.30017e-006 xyz
  end
  begin
    id 12
    name LeftShoulder1
    direction 0.99951 -0.000327763 0.0313091
    length 4.05031
    axis -0.001389 0.000121451 1.30017e-006 xyz
    dof rx ry rz
  end
  begin
    id 13
    name LeftArm
    direction 0.998561 -0.00100056 -0.0536182
    length 10.3537
    axis -23.1894 0.134784 0.967509 xyz
    dof rx ry rz
  end
  begin
    id 14
    name LeftForeArm
    direction 0.998903 0.00866432 0.046012
    length 8.70632
    axis -9.91835 -0.06569 -0.177794 xyz
    dof rx ry rz
  end
  begin
    id 15
    name LeftHand
    direction 0 0 0
    length 0
    axis 0 0 0 xyz
    dof rx ry rz
  end
  begin
    id 16
    name RightShoulderDummy
    direction -0.998891 -0.0402509 -0.0244414
    length 3.5433
    axis -0.001389 0.000121451 1.30017e-006 xyz
  end
  begin
    id 17
    name RightShoulder
    direction -0.99951 -0.000327807 0.0313133
    length 4.05031
    axis 0.215806 0.000203643 -0.0068026 xyz
    dof rx ry rz
  end
  begin
    id 18
    name RightArm
    direction -0.998573 -0.000999564 -0.053403
    length 10.3947
    axis -23.2009 -0.134239 -0.964101 xyz
    dof rx ry rz
  end
  begin
    id 19
    name RightForeArm
    direction -0.998898 0.00868028 0.0461306
    length 8.68355
    axis -9.92322 0.0658061 0.178868 xyz
    dof rx ry rz
  end
  begin
    id 20
    name RightHand
    direction 0 0 0
    length 0
    axis 0 0 0 xyz
    dof rx ry rz
  end
  begin
    id 21
    name LeftUpLegDummy
    direction 0.718183 -0.695806 0.00816078
    length 4.904
    axis 0 0 0 xyz
  end
  begin
    id 22
    name LeftUpLeg
    direction -6.81752e-006 -0.995793 0.0916337
    length 17.4976
    axis -3.48766 0.00143442 -0.000524262 xyz
    dof rx ry rz
  end
  begin
    id 23
    name LeftLeg
    direction -0.00601358 -0.995091 -0.0987824
    length 16.5821
    axis 3.68178 -0.00654042 -0.000285133 xyz
    dof rx ry rz
  end
  begin
    id 24
    name LeftFoot
    direction -0.00417578 -0.460984 0.887399
    length 3.77069
    axis 1.87233e-006 4.66016e-005 -8.6538e-006 xyz
    dof rx ry rz
  end
  begin
    id 25
    name LeftToes
    direction 0 0 0
    length 0
    axis 0 0 0 xyz
    dof rx ry rz
  end
:hierarchy
  begin
    root RightUpLegDummy SpineDummy LeftUpLegDummy
    RightUpLegDummy RightUpLeg
    RightUpLeg RightLeg
    RightLeg RightFoot
    RightFoot RightToes
    SpineDummy Spine
    Spine Spine1
    Spine1 HEadDummy LeftShoulder1Dummy RightShoulderDummy
    HEadDummy HEad
    LeftShoulder1Dummy LeftShoulder1
    LeftShoulder1 LeftArm
    LeftArm LeftForeArm
    LeftForeArm LeftHand
    RightShoulderDummy RightShoulder
    RightShoulder RightArm
    RightArm RightForeArm
    RightForeArm RightHand
    LeftUpLegDummy LeftUpLeg
    LeftUpLeg LeftLeg
    LeftLeg LeftFoot
    LeftFoot LeftToes
  end

:SAMPLES-PER-SECOND 30
:FULLY-SPECIFIED
:DEGREES
48
root  58.05 37.7945 0.453566 163.527 -75.6516 -165.808
RightUpLeg  -14.2829 -10.2063 2.79388
RightLeg  36.9765 -2.88532 -2.65984
RightFoot  -16.7487 -0.237879 -2.68141
RightToes  0.000481921 0.542163 -0.142578
Spine  12.2158 -0.51484 11.1332
Spine1  4.66234 0.693643 1.94824
HEad  -30.8103 11.17 -10.1713
LeftShoulder1  9.0797 -13.4853 -46.6253
LeftArm  -10.8086 22.5809 -21.2682
LeftForeArm  29.0836 -5.99393 -4.16028
LeftHand  -0.25398 0.0180481 5.50724
RightShoulder  5.3303 8.8481 37.1366
RightArm  -17.6628 5.8509 33.185
RightForeArm  -46.6373 20.5443 7.18323
RightHand  -1.98342 7.72384 -17.8837
LeftUpLeg  -8.47129 12.6506 8.03133
LeftLeg  64.6124 5.42038 12.9506
LeftFoot  -6.34301 0.195158 -3.69761
LeftToes  1.06245e-005 4.65868e-005 -8.65515e-006
49
root  56.691 39.1353 0.266957 174.776 -75.6188 -176.088
RightUpLeg  -8.87278 -11.9523 -1.04849
RightLeg  27.4208 0.349511 -0.0511979
RightFoot  -11.7394 -0.0976499 -1.04793
RightToes  0.000481921 0.542163 -0.142578
Spine  10.4703 0.725159 10.0018
Spine1  3.523 2.06822 -0.162998
HEad  -28.9936 10.6111 -13.7737
LeftShoulder1  8.51126 -13.0647 -44.7542
LeftArm  -8.64348 29.0608 -16.4158
LeftForeArm  18.8409 -2.91664 -4.01913
LeftHand  -0.25398 0.0180481 5.50724
RightShoulder  4.82884 8.11392 35.5853
RightArm  -17.9815 8.41645 34.108
RightForeArm  -38.536 26.7914 7.33652
RightHand  -1.37683 5.71657 -14.7966
LeftUpLeg  -11.6747 14.1705 4.4334
LeftLeg  59.6108 6.20156 11.8362
LeftFoot  -7.70208 0.240845 -6.07724
LeftToes  1.06245e-005 4.65868e-005 -8.65515e-006
50
root  55.3436 40.3192 0.132369 -175.371 -74.9198 175.658
RightUpLeg  -5.1252 -13.9082 -4.9843
RightLeg  19.6399 4.57087 2.36392
RightFoot  -5.53313 -0.196983 3.00946
RightToes  0.000481921 0.542163 -0.142578
Spine  8.83745 2.06088 9.74942
Spine1  1.17429 3.63048 -3.11284
HEad  -24.6739 10.1317 -17.0715
LeftShoulder1  7.94703 -12.8351 -42.2458
LeftArm  -5.94308 35.6491 -11.2796
LeftForeArm  13.6981 -2.76479 -3.92724
LeftHand  -0.25398 0.0180481 5.50724
RightShoulder  4.27753 7.32192 33.5669
RightArm  -19.1299 9.58374 35.2798
RightForeArm  -33.8799 33.5633 9.09349
RightHand  -1.52941 5.61743 -16.3778
LeftUpLeg  -15.0148 15.5632 0.966579
LeftLeg  52.3983 6.98612 10.0987
LeftFoot  -7.99746 0.264039 -7.38202
LeftToes  1.06245e-005 4.65868e-005 -8.65515e-006
51
root  54.0979 41.1891 0.039975 -170.151 -73.3678 171.69
RightUpLeg  -3.02224 -13.6506 -8.08083
RightLeg  16.2083 4.52617 3.01053
RightFoot  -1.08887 -0.633373 7.08658
RightToes  0.000481921 0.542163 -0.142578
Spine  8.13077 3.45142 10.4157
Spine1  -1.0195 5.33587 -6.3176
HEad  -19.9841 10.4895 -20.5385
LeftShoulder1  7.35834 -12.7682 -39.0251
LeftArm  -2.87293 41.8998 -6.02472
LeftForeArm  14.0969 -5.28628 -3.7813
LeftHand  -0.25398 0.0180481 5.50724
RightShoulder  3.83838 6.79852 31.3127
RightArm  -18.9563 11.277 35.9885
RightForeArm  -31.4154 40.0852 11.082
RightHand  -1.81015 6.15489 -18.4625
LeftUpLeg  -17.7428 16.8336 -1.34649
LeftLeg  44.5029 6.96924 7.69038
LeftFoot  -7.98166 0.266151 -7.45025
LeftToes  1.06245e-005 4.65868e-005 -8.65515e-006
52
root  52.9772 41.6676 -0.0331041 -169.063 -72.0272 170.628
RightUpLeg  -0.915028 -14.4124 -10.2359
RightLeg  16.0387 2.1852 2.00019
RightFoot  1.4134 -0.92787 8.41468
RightToes  0.000481921 0.542163 -0.142578
Spine  8.50179 4.44869 11.0492
Spine1  -1.47737 6.66191 -8.36363
HEad  -17.9026 11.3044 -24.3062
LeftShoulder1  6.58715 -12.491 -35.1068
LeftArm  1.09043 46.6856 -1.42166
LeftForeArm  16.509 -8.88647 -4.09376
LeftHand  -0.25398 0.0180481 5.50724
RightShoulder  3.47456 6.46824 28.8545
RightArm  -19.0306 15.0312 35.9968
RightForeArm  -27.234 45.4596 12.9915
RightHand  -1.81845 5.99923 -18.7671
LeftUpLeg  -19.2023 18.1102 -2.17372
LeftLeg  36.8067 5.81925 5.02962
LeftFoot  -7.70316 0.304555 -8.09385
LeftToes  1.06245e-005 4.65868e-005 -8.65515e-006
53
root  51.8991 41.7038 -0.118084 -168.903 -71.8524 169.716
RightUpLeg  2.55239 -14.9737 -12.5231
RightLeg  15.4836 -0.635653 1.33444
RightFoot  3.28967 -1.09852 8.68383
RightToes  0.000481921 0.542163 -0.142578
Spine  8.8789 4.82039 11.1513
Spine1  -0.206167 7.33516 -9.23304
HEad  -18.3077 11.9345 -27.2569
LeftShoulder1  5.68498 -11.8419 -30.9991
LeftArm  6.23191 49.7706 2.63837
LeftForeArm  17.7291 -12.3805 -4.60989
LeftHand  -0.25398 0.0180481 5.50724
RightShoulder  3.09313 6.05183 26.2983
RightArm  -19.9901 20.4658 35.3268
RightForeArm  -21.5719 49.665 14.6798
RightHand  -1.73338 5.71147 -18.3672
LeftUpLeg  -20.0646 19.2348 -2.48053
LeftLeg  29.6484 3.64299 2.59299
LeftFoot  -6.06217 0.453309 -9.02479
LeftToes  1.06245e-005 4.65868e-005 -8.65515e-006
54
root  50.7924 41.3074 -0.232507 -167.718 -72.5979 168.041
RightUpLeg  6.8187 -15.1 -15.0589
RightLeg  13.3532 -1.01544 2.29805
RightFoot  3.10483 -1.36668 11.0013
RightToes  0.000481921 0.542163 -0.142578
Spine  8.73921 4.90384 10.8916
Spine1  1.00162 7.60502 -9.88732
HEad  -18.8178 12.4274 -28.8524
LeftShoulder1  4.94453 -11.3096 -27.2723
LeftArm  12.1974 52.0754 7.36243
LeftForeArm  17.1845 -15.3908 -4.66185
LeftHand  -0.25398 0.0180481 5.50724
RightShoulder  2.71155 5.43841 24.1621
RightArm  -21.6437 26.1552 33.7619
RightForeArm  -16.4401 52.996 16.2187
RightHand  -1.82444 6.12907 -18.625
LeftUpLeg  -21.5299 19.5947 -3.13209
LeftLeg  23.5013 1.0506 0.823154
LeftFoot  -3.11166 0.661585 -8.96282
LeftToes  1.06245e-005 4.65868e-005 -8.65515e-006
55
root  49.6679 40.5632 -0.3658 -165.615 -73.4473 165.763
RightUpLeg  10.8087 -15.1185 -17.3559
RightLeg  11.5606 0.585347 3.5812
RightFoot  -1.11407 -1.30083 14.4228
RightToes  0.000481921 0.542163 -0.142578
Spine  8.92751 4.96863 10.2851
Spine1  0.966132 7.75679 -10.5973
HEad  -18.5548 13.1858 -29.5442
LeftShoulder1  4.42358 -11.1215 -24.0021
LeftArm  17.0497 54.0764 12.6899
LeftForeArm  16.5985 -17.4959 -4.35652
LeftHand  -0.25398 0.0180481 5.50724
RightShoulder  2.41275 4.72452 23.113
RightArm  -23.5314 31.6681 31.306
RightForeArm  -13.7943 55.395 17.573
RightHand  -2.12558 7.05937 -20.0254
LeftUpLeg  -23.7868 18.798 -3.91085
LeftLeg  19.4141 -0.343445 0.174852
LeftFoot  -0.732308 0.755369 -8.07207
LeftToes  1.06245e-005 4.65868e-005 -8.65515e-006
56
root  48.4861 39.6609 -0.473735 -163.835 -74.2379 163.39
RightUpLeg  14.5414 -15.5491 -19.4383
RightLeg  11.6953 1.83164 4.00266
RightFoot  -7.57218 -0.582401 15.6194
RightToes  0.000481921 0.542163 -0.142578
Spine  10.0409 4.86108 9.56457
Spine1  0.508165 7.76865 -11.0764
HEad  -19.2057 13.4204 -30.9806
LeftShoulder1  3.95041 -10.6402 -21.5482
LeftArm  18.5563 54.9908 16.3167
LeftForeArm  16.8309 -18.2274 -4.07862
LeftHand  -0.25398 0.0180481 5.50724
RightShoulder  2.25605 4.13515 23.3306
RightArm  -25.4076 36.7925 28.57
RightForeArm  -13.2275 57.4611 19.0353
RightHand  -2.55954 8.07996 -22.2179
LeftUpLeg  -25.8061 17.4725 -4.37569
LeftLeg  17.856 0.525666 0.514916
LeftFoot  -0.284449 0.717579 -7.38468
LeftToes  1.06245e-005 4.65868e-005 -8.65515e-006
57
root  47.1107 38.8092 -0.512117 -162.223 -75.4047 160.777
RightUpLeg  18.4487 -16.0011 -21.5433
RightLeg  12.8635 1.96871 3.85529
RightFoot  -12.5483 0.0869235 15.6673
RightToes  0.000481921 0.542163 -0.142578
Spine  10.9916 4.45283 9.26602
Spine1  1.00699 7.63305 -11.6435
HEad  -20.8744 12.6019 -32.8106
LeftShoulder1  3.58185 -9.59674 -20.9415
LeftArm  15.6234 54.0359 16.3467
LeftForeArm  17.1896 -17.3167 -3.85648
LeftHand  -0.25398 0.0180481 5.50724
RightShoulder  2.28178 3.97421 24.3531
RightArm  -26.818 39.3958 26.6419
RightForeArm  -11.1849 61.0424 22.068
RightHand  -2.8772 8.6645 -23.8788
LeftUpLeg  -26.9658 16.3604 -5.00835
LeftLeg  18.3682 2.13806 1.12063
LeftFoot  -0.777824 0.644889 -6.91718
LeftToes  1.06245e-005 4.65868e-005 -8.65515e-006
58
root  45.4855 38.1067 -0.468615 -158.633 -77.0729 156.675
RightUpLeg  21.9998 -16.6438 -23.7165
RightLeg  13.9743 2.79018 3.33769
RightFoot  -14.6103 0.441533 18.8779
RightToes  0.000481921 0.542163 -0.142578
Spine  10.5817 3.99844 9.29945
Spine1  2.19539 7.54242 -12.9235
HEad  -21.4459 11.3939 -33.2102
LeftShoulder1  3.57583 -8.82177 -22.6885
LeftArm  10.2851 51.4432 13.9061
LeftForeArm  16.1171 -15.0741 -3.60525
LeftHand  -0.25398 0.0180481 5.50724
RightShoulder  2.54104 4.46041 25.8042
RightArm  -26.571 36.5522 26.3401
RightForeArm  -4.02544 67.1326 29.4219
RightHand  -2.85911 8.35551 -24.2273
LeftUpLeg  -27.9374 14.8408 -6.35889
LeftLeg  20.8178 2.59856 1.41189
LeftFoot  -0.606707 0.488199 -5.20061
LeftToes  1.06245e-005 4.65868e-005 -8.65515e-006
